<svg height="64" viewBox="0 0 1024 1024" width="64" xmlns="http://www.w3.org/2000/svg"><path d="m184.254206 63.059025c-7.160249 2.765869-13.181123 8.29752-16.436172 14.483615-3.255048 6.181803-3.255048 10.413151-3.255048 206.831841 0 200.32389 0 200.650038 3.418122 207.647213 6.347023 13.181123 24.572721 19.041069 39.545516 12.85712 3.415977-1.465523 44.09872-40.682744 106.101282-102.196125 55.490318-54.84227 106.101282-104.800936 112.448305-110.984885 13.668243-13.018049 18.388772-21.4786 18.388772-32.872343-.162989-11.065449-4.557412-19.852149-13.996495-27.664695-17.899549-14.644501-222.454787-166.801438-226.199059-168.266918-5.042428-1.9526-14.807574-1.9526-20.015223.165177z"/><path d="m820.376967 62.406771c-2.276603.815414-41.659043 30.26957-99.267182 74.207406-12.041834 9.112827-45.564244 34.498773-74.368313 56.142594-28.804069 21.804749-54.679238 42.148266-57.281989 45.240241-9.275923 10.578371-10.415298 25.873023-2.602752 38.893217 3.415977 5.857801 43.772572 46.37747 181.445895 182.422196 43.937792 43.28764 44.914093 44.266172 53.702938 46.218686 10.902375 2.439677 20.178298.321857 27.82777-6.02302 10.089148-8.625772 9.599925 3.581111 9.599925-215.296684 0-193.326716-.163074-200.486964-3.089828-206.344807-3.583343-6.834057-6.99932-10.252159-14.322643-13.994306-5.042429-2.441823-16.599246-3.255049-21.643821-1.465523z"/><path d="m504.188688 298.531904c-3.744164 1.628597-34.337845 30.595741-80.5543 75.99691-78.436587 77.299359-204.555238 200.650039-224.409533 219.528033-14.320498 13.505126-18.875849 22.293972-18.875849 34.985872.163074 14.972731 3.415977 20.180379 27.014543 43.124567 11.878675 11.554672 69.160665 67.860361 127.25588 125.305425 154.107349 151.830746 160.617446 158.175623 166.801395 161.267598 3.091974 1.628597 9.926031 3.255048 15.459871 3.581197 8.462698.650151 10.902418.163074 18.225698-3.9052 6.183884-3.255049 47.192841-43.124567 154.598717-149.551997 80.389188-79.739101 148.410478-146.949246 151.339378-149.388923 12.694046-10.578372 17.412471-33.687715 10.089148-48.658407-1.9526-4.068274-12.367897-15.620757-25.061943-27.988655-11.878674-11.7156-48.656218-47.518904-81.528476-79.739122-33.033358-32.059074-92.920245-90.64347-132.952837-130.186839-42.635344-41.822118-75.507751-72.741862-78.92581-74.370459-3.415977-1.626451-9.599926-2.765826-14.15738-2.765826-4.39232 0-10.902418 1.139375-14.320455 2.767972z"/></svg>